<svg width="1474" height="305" viewBox="0 0 1474 305" fill="none" xmlns="http://www.w3.org/2000/svg">
<path d="M300 17.4255C300 7.80168 292.198 0 282.574 0H47.3684C21.2076 0 1.88225e-06 21.2076 1.88225e-06 47.3684V134.685C1.88225e-06 172.275 41.6837 194.889 73.1949 174.394L292.075 32.0332C297.018 28.8183 300 23.3219 300 17.4255Z" fill="white"/>
<path d="M0 282.574C0 292.198 7.80167 300 17.4255 300H252.632C278.792 300 300 278.792 300 252.632V165.315C300 127.725 258.316 105.111 226.805 125.606L7.92467 267.967C2.98182 271.182 0 276.678 0 282.574Z" fill="white"/>
<path d="M490.391 98.5V238H447.641V219C443.307 225.167 437.391 230.167 429.891 234C422.557 237.667 414.391 239.5 405.391 239.5C394.724 239.5 385.307 237.167 377.141 232.5C368.974 227.667 362.641 220.75 358.141 211.75C353.641 202.75 351.391 192.167 351.391 180V98.5H393.891V174.25C393.891 183.583 396.307 190.833 401.141 196C405.974 201.167 412.474 203.75 420.641 203.75C428.974 203.75 435.557 201.167 440.391 196C445.224 190.833 447.641 183.583 447.641 174.25V98.5H490.391ZM563.848 118.25C567.848 111.75 573.598 106.5 581.098 102.5C588.598 98.5 597.181 96.5 606.848 96.5C618.348 96.5 628.764 99.4167 638.098 105.25C647.431 111.083 654.764 119.417 660.098 130.25C665.598 141.083 668.348 153.667 668.348 168C668.348 182.333 665.598 195 660.098 206C654.764 216.833 647.431 225.25 638.098 231.25C628.764 237.083 618.348 240 606.848 240C597.014 240 588.431 238.083 581.098 234.25C573.764 230.25 568.014 225 563.848 218.5V238H521.098V53H563.848V118.25ZM624.848 168C624.848 157.333 621.848 149 615.848 143C610.014 136.833 602.764 133.75 594.098 133.75C585.598 133.75 578.348 136.833 572.348 143C566.514 149.167 563.598 157.583 563.598 168.25C563.598 178.917 566.514 187.333 572.348 193.5C578.348 199.667 585.598 202.75 594.098 202.75C602.598 202.75 609.848 199.667 615.848 193.5C621.848 187.167 624.848 178.667 624.848 168ZM754.275 239.75C741.442 239.75 729.942 237.667 719.775 233.5C709.609 229.333 701.442 223.167 695.275 215C689.275 206.833 686.109 197 685.775 185.5H731.275C731.942 192 734.192 197 738.025 200.5C741.859 203.833 746.859 205.5 753.025 205.5C759.359 205.5 764.359 204.083 768.025 201.25C771.692 198.25 773.525 194.167 773.525 189C773.525 184.667 772.025 181.083 769.025 178.25C766.192 175.417 762.609 173.083 758.275 171.25C754.109 169.417 748.109 167.333 740.275 165C728.942 161.5 719.692 158 712.525 154.5C705.359 151 699.192 145.833 694.025 139C688.859 132.167 686.275 123.25 686.275 112.25C686.275 95.9167 692.192 83.1667 704.025 74C715.859 64.6667 731.275 60 750.275 60C769.609 60 785.192 64.6667 797.025 74C808.859 83.1667 815.192 96 816.025 112.5H769.775C769.442 106.833 767.359 102.417 763.525 99.25C759.692 95.9167 754.775 94.25 748.775 94.25C743.609 94.25 739.442 95.6667 736.275 98.5C733.109 101.167 731.525 105.083 731.525 110.25C731.525 115.917 734.192 120.333 739.525 123.5C744.859 126.667 753.192 130.083 764.525 133.75C775.859 137.583 785.025 141.25 792.025 144.75C799.192 148.25 805.359 153.333 810.525 160C815.692 166.667 818.275 175.25 818.275 185.75C818.275 195.75 815.692 204.833 810.525 213C805.525 221.167 798.192 227.667 788.525 232.5C778.859 237.333 767.442 239.75 754.275 239.75ZM887.334 118.25C891.501 111.75 897.251 106.5 904.584 102.5C911.917 98.5 920.501 96.5 930.334 96.5C941.834 96.5 952.251 99.4167 961.584 105.25C970.917 111.083 978.251 119.417 983.584 130.25C989.084 141.083 991.834 153.667 991.834 168C991.834 182.333 989.084 195 983.584 206C978.251 216.833 970.917 225.25 961.584 231.25C952.251 237.083 941.834 240 930.334 240C920.667 240 912.084 238 904.584 234C897.251 230 891.501 224.833 887.334 218.5V304.5H844.584V98.5H887.334V118.25ZM948.334 168C948.334 157.333 945.334 149 939.334 143C933.501 136.833 926.251 133.75 917.584 133.75C909.084 133.75 901.834 136.833 895.834 143C890.001 149.167 887.084 157.583 887.084 168.25C887.084 178.917 890.001 187.333 895.834 193.5C901.834 199.667 909.084 202.75 917.584 202.75C926.084 202.75 933.334 199.667 939.334 193.5C945.334 187.167 948.334 178.667 948.334 168ZM1005.76 168C1005.76 153.667 1008.43 141.083 1013.76 130.25C1019.26 119.417 1026.68 111.083 1036.01 105.25C1045.35 99.4167 1055.76 96.5 1067.26 96.5C1077.1 96.5 1085.68 98.5 1093.01 102.5C1100.51 106.5 1106.26 111.75 1110.26 118.25V98.5H1153.01V238H1110.26V218.25C1106.1 224.75 1100.26 230 1092.76 234C1085.43 238 1076.85 240 1067.01 240C1055.68 240 1045.35 237.083 1036.01 231.25C1026.68 225.25 1019.26 216.833 1013.76 206C1008.43 195 1005.76 182.333 1005.76 168ZM1110.26 168.25C1110.26 157.583 1107.26 149.167 1101.26 143C1095.43 136.833 1088.26 133.75 1079.76 133.75C1071.26 133.75 1064.01 136.833 1058.01 143C1052.18 149 1049.26 157.333 1049.26 168C1049.26 178.667 1052.18 187.167 1058.01 193.5C1064.01 199.667 1071.26 202.75 1079.76 202.75C1088.26 202.75 1095.43 199.667 1101.26 193.5C1107.26 187.333 1110.26 178.917 1110.26 168.25ZM1175.44 168.25C1175.44 153.75 1178.36 141.083 1184.19 130.25C1190.19 119.417 1198.44 111.083 1208.94 105.25C1219.61 99.4167 1231.77 96.5 1245.44 96.5C1262.94 96.5 1277.52 101.083 1289.19 110.25C1301.02 119.417 1308.77 132.333 1312.44 149H1266.94C1263.11 138.333 1255.69 133 1244.69 133C1236.86 133 1230.61 136.083 1225.94 142.25C1221.27 148.25 1218.94 156.917 1218.94 168.25C1218.94 179.583 1221.27 188.333 1225.94 194.5C1230.61 200.5 1236.86 203.5 1244.69 203.5C1255.69 203.5 1263.11 198.167 1266.94 187.5H1312.44C1308.77 203.833 1301.02 216.667 1289.19 226C1277.36 235.333 1262.77 240 1245.44 240C1231.77 240 1219.61 237.083 1208.94 231.25C1198.44 225.417 1190.19 217.083 1184.19 206.25C1178.36 195.417 1175.44 182.75 1175.44 168.25ZM1466.81 166C1466.81 170 1466.56 174.167 1466.06 178.5H1369.31C1369.97 187.167 1372.72 193.833 1377.56 198.5C1382.56 203 1388.64 205.25 1395.81 205.25C1406.47 205.25 1413.89 200.75 1418.06 191.75H1463.56C1461.22 200.917 1456.97 209.167 1450.81 216.5C1444.81 223.833 1437.22 229.583 1428.06 233.75C1418.89 237.917 1408.64 240 1397.31 240C1383.64 240 1371.47 237.083 1360.81 231.25C1350.14 225.417 1341.81 217.083 1335.81 206.25C1329.81 195.417 1326.81 182.75 1326.81 168.25C1326.81 153.75 1329.72 141.083 1335.56 130.25C1341.56 119.417 1349.89 111.083 1360.56 105.25C1371.22 99.4167 1383.47 96.5 1397.31 96.5C1410.81 96.5 1422.81 99.3333 1433.31 105C1443.81 110.667 1451.97 118.75 1457.81 129.25C1463.81 139.75 1466.81 152 1466.81 166ZM1423.06 154.75C1423.06 147.417 1420.56 141.583 1415.56 137.25C1410.56 132.917 1404.31 130.75 1396.81 130.75C1389.64 130.75 1383.56 132.833 1378.56 137C1373.72 141.167 1370.72 147.083 1369.56 154.75H1423.06Z" fill="white"/>
</svg>
