<svg xmlns="http://www.w3.org/2000/svg" xmlns:xlink="http://www.w3.org/1999/xlink"
    enable-background="new 0 0 3000 3000" viewBox="0 0 3000 3000"
    id="motor-cycle-for-disabled-people">
    <switch>
        <g>
            <g>
                <g>
                    <g>
                        <g opacity=".1">
                            <g>
                                <polygon
                                    points="372.403 1708.91 677.793 1531.425 2654.091 2672.516 2348.702 2850"></polygon>
                            </g>
                        </g>
                        <g>
                            <g>
                                <polygon fill="#c2573a"
                                    points="1816.759 1087.772 1753.653 1090.645 1704.717 898.149 1816.759 898.149"></polygon>
                                <g>
                                    <g>
                                        <g>
                                            <g>
                                                <path fill="#737373" d="M863.878,1408.201c-54.29-31.346-103.468-34.255-138.979-13.617l-99.391,57.763
												c35.511-20.638,84.69-17.729,138.979,13.617c107.863,62.279,195.031,213.27,194.68,337.222
												c-0.175,61.578-21.916,104.905-56.977,125.282l99.391-57.763c35.061-20.377,56.803-63.704,56.977-125.282
												C1058.91,1621.471,971.742,1470.48,863.878,1408.201z"></path>
                                                <g>
                                                    <ellipse cx="763.851" cy="1690.412"
                                                        fill="#525252" rx="159.478" ry="275.337"
                                                        transform="rotate(-30.16 763.844 1690.427)"></ellipse>
                                                </g>
                                            </g>
                                        </g>
                                        <g>
                                            <path fill="#fff" d="M770.362,1526.779c80.905,46.714,146.259,159.953,145.995,252.925
											c-0.263,92.972-66.045,130.461-146.95,83.748c-80.905-46.714-146.289-159.969-146.025-252.908
											C623.646,1517.571,689.457,1480.065,770.362,1526.779z"></path>
                                        </g>
                                        <g>
                                            <path fill="#ff8a4f" d="M770.173,1591.42c49.838,28.776,90.096,98.531,89.934,155.802
											c-0.162,57.271-40.684,80.365-90.522,51.589c-49.838-28.776-90.114-98.542-89.952-155.792
											C679.795,1585.748,720.335,1562.644,770.173,1591.42z"></path>
                                        </g>
                                    </g>
                                </g>
                                <g>
                                    <g>
                                        <g>
                                            <g>
                                                <path fill="#737373" d="M1332.513,1185.84c-54.29-31.346-103.469-34.255-138.979-13.617l-99.391,57.763
												c35.511-20.638,84.69-17.729,138.979,13.617c107.863,62.279,195.031,213.27,194.68,337.222
												c-0.174,61.578-21.916,104.905-56.977,125.282l99.391-57.763c35.062-20.377,56.803-63.704,56.977-125.282
												C1527.544,1399.11,1440.376,1248.119,1332.513,1185.84z"></path>
                                                <g>
                                                    <ellipse cx="1232.485" cy="1468.052"
                                                        fill="#525252" rx="159.478" ry="275.337"
                                                        transform="rotate(-30.16 1232.483 1468.07)"></ellipse>
                                                </g>
                                            </g>
                                        </g>
                                        <g>
                                            <path fill="#fff" d="M1238.996,1304.418c80.905,46.714,146.259,159.953,145.995,252.925
											c-0.263,92.972-66.045,130.461-146.95,83.748c-80.905-46.714-146.288-159.97-146.025-252.908
											C1092.28,1295.211,1158.091,1257.705,1238.996,1304.418z"></path>
                                        </g>
                                        <g>
                                            <path fill="#ff8a4f" d="M1238.807,1369.06c49.838,28.776,90.096,98.531,89.934,155.802
											c-0.162,57.271-40.684,80.365-90.522,51.589c-49.838-28.776-90.114-98.542-89.952-155.792
											C1148.429,1363.388,1188.969,1340.284,1238.807,1369.06z"></path>
                                        </g>
                                    </g>
                                </g>
                                <g>
                                    <g>
                                        <g>
                                            <g>
                                                <g>
                                                    <path fill="#737373" d="M2350.862,2204.993c-54.29-31.346-103.469-34.255-138.979-13.617l-99.391,57.763
													c35.511-20.638,84.69-17.729,138.979,13.617c107.863,62.279,195.031,213.27,194.68,337.222
													c-0.175,61.578-21.916,104.905-56.977,125.282l99.391-57.763c35.062-20.377,56.803-63.704,56.978-125.282
													C2545.893,2418.263,2458.725,2267.272,2350.862,2204.993z"></path>
                                                    <g>
                                                        <ellipse cx="2250.834" cy="2487.205"
                                                            fill="#525252" rx="159.478" ry="275.337"
                                                            transform="rotate(-30.16 2250.832 2487.236)"></ellipse>
                                                    </g>
                                                </g>
                                            </g>
                                            <g>
                                                <path fill="#fff" d="M2251.326,2318.864c80.905,46.714,146.259,159.953,145.996,252.925
												c-0.264,92.972-66.045,130.461-146.95,83.748c-80.905-46.714-146.289-159.97-146.025-252.908
												C2104.61,2309.656,2170.421,2272.15,2251.326,2318.864z"></path>
                                            </g>
                                            <g>
                                                <path fill="#ff8a4f" d="M2251.137,2383.505c49.838,28.776,90.096,98.531,89.934,155.802
												c-0.162,57.271-40.684,80.365-90.521,51.589c-49.838-28.776-90.114-98.542-89.952-155.792
												C2160.76,2377.833,2201.299,2354.729,2251.137,2383.505z"></path>
                                            </g>
                                        </g>
                                    </g>
                                    <g>
                                        <g>
                                            <path fill="#a9cad6" d="M2271.25,2475.517l-120.404-369.393l-15.186,8.826l120.404,369.393
											c4.49,13.816,2.165,25.33-4.994,29.49l15.186-8.826C2273.416,2500.847,2275.74,2489.333,2271.25,2475.517z"></path>
                                            <g>
                                                <polygon fill="#a2a2a2"
                                                    points="2090.305 2113.02 2105.491 2104.195 2150.847 2106.124 2135.661 2114.95"></polygon>
                                            </g>
                                            <g>
                                                <path fill="#617d89" d="M2135.661,2114.95l120.404,369.393c5.765,17.738,0.296,31.682-12.214,31.141
												c-3.421-0.143-7.015-1.351-10.548-3.391c-9.414-5.436-18.402-16.782-22.594-29.679l-120.404-369.393L2135.661,2114.95z"></path>
                                            </g>
                                        </g>
                                    </g>
                                </g>
                                <g>
                                    <g>
                                        <polygon fill="#4f5c61"
                                            points="587.585 1420.727 1111.044 1739.66 1682.531 2084.782 1911.63 1845.208 909.347 1262.708"></polygon>
                                    </g>
                                    <path fill="#ff6740" d="M2344.564,1452.651c-23.133-318.097-179.176-599.035-357.674-599.035
									c-178.498,0-316.799,120.76-323.199,344.768c-8.618,301.672,279.961,798.473-7.014,815.293
									c-147.051,8.619-347.999-187.849-574.956-299.898c0,0-18.516,14.904,13.754,51.574
									c81.823,92.982,296.06,279.709,535.348,377.606C2341.824,2433.843,2361.801,1689.679,2344.564,1452.651z"></path>
                                </g>
                                <g>
                                    <path fill="#ff9378" d="M2466.449,2213.693c-16.951,40.425-91.763,50.502-140.771,54.588
									c-97.509,8.131-284.415-94.811-284.415-94.811c27.237-72.501,20.11-252.83-8.535-341.858
									c29.564-52.567,194.004-131.142,243.162-135.892c17.281,62.889-18.46,253.609,92.882,348.462
									C2446.339,2110.263,2481.872,2176.912,2466.449,2213.693z"></path>
                                </g>
                                <path fill="#d96241" d="M1271.07,1022.661c-75.555-43.625-144.007-47.676-193.432-18.951l-41.152,23.916
								c0.158-0.092,0.327-0.165,0.486-0.256c-49.069,28.24-79.527,88.63-79.77,174.603
								c54.995,188.568,444.162,339.762,510.492,338.062c28.01-0.718,75.415-45.76,74.301-48.087
								C1542.483,1319.442,1421.187,1109.337,1271.07,1022.661z"></path>
                                <g>
                                    <defs>
                                        <polygon id="a"
                                            points="1934.019 1306.358 1157.148 1757.855 345.909 1289.455 630.237 914.855 939.765 732.288"></polygon>
                                    </defs>
                                    <clipPath id="b">
                                        <use overflow="visible" xlink:href="#a"></use>
                                    </clipPath>
                                    <ellipse cx="583.294" cy="1181.117" fill="#fff200"
                                        clip-path="url(#b)" rx="62.56" ry="77.858"></ellipse>
                                    <path fill="#ff6740" d="M1455.239,1515.016c-0.932-11.561-2.544-26.963-4.444-38.405
									c-3.498-21.07-9.348-48.964-14.157-69.773c-2.509-10.857-7.04-25.031-10.221-35.711
									c-5.706-19.16-18.781-53.983-24.809-67.444c-4.388-9.797-9.83-23.054-14.663-32.639
									c-9.657-19.155-22.904-44.524-33.612-63.111c-0.163-0.284-16.599-28.723-39.416-60.369
									c-22.73-31.526-41.778-53.197-45.366-57.222c-10.81-12.125-28.903-32.42-52.089-53.779
									c-7.824-7.207-18.399-16.673-26.605-23.441c-9.837-8.114-23.107-18.779-33.514-26.148
									c-17.376-12.304-33.789-23.925-63.698-40.406c-17.79-9.803-42.446-21.233-61.401-28.53
									c-13.496-5.196-31.931-10.954-45.831-14.941c-9.05-2.596-21.405-4.948-30.597-6.985
									c-14.953-3.313-35.406-4.973-50.669-6.232c-16.262-1.341-38.149-0.64-54.383,1.012
									c-17.122,1.743-39.896,5.535-56.442,10.272c-15.871,4.544-36.788,11.792-51.664,18.949
									c-7.685,3.697-17.85,8.831-25.189,13.175c-8.663,5.128-19.968,12.41-28.086,18.363
									c-13.7,10.046-30.748,25.143-42.583,37.331c-11.048,11.378-24.562,27.804-33.429,40.953
									c-8.233,12.208-18.899,28.817-25.142,42.153c-3.816,8.152-9.247,18.881-12.527,27.263
									c-4.991,12.757-11.352,29.923-15.014,43.123c-2.544,9.17-5.785,21.454-7.642,30.788
									c-2.504,12.592-5.341,29.492-6.883,42.237c-4.542,37.541-3.365,74.364-3.351,74.718c0.418,10.64,1,24.833,1.913,35.442
									c0.995,11.556,2.485,26.974,4.444,38.406c3.608,21.052,9.348,48.964,14.157,69.774c2.509,10.858,6.948,25.059,10.221,35.712
									c8.71,28.354,22.159,61.527,24.81,67.446c4.388,9.797,9.83,23.055,14.663,32.64c4.831,9.58,11.063,22.462,16.107,31.931
									c5.053,9.487,12.062,21.995,17.542,31.243c10.931,18.447,26.934,42.173,39.057,59.859
									c6.15,8.972,15.259,20.283,21.824,28.957c6.01,7.94,20.229,25.64,47.939,54.966c9.283,9.825,31.235,31.617,54.625,50.973
									c30.097,24.906,52.123,39.521,62.574,46.016c8.997,5.591,21.017,13.024,30.292,18.141
									c10.297,5.681,24.19,12.995,34.909,17.831c9.163,4.134,21.401,9.645,30.842,13.098
									c13.582,4.967,31.794,11.463,45.831,14.941c9.139,2.264,21.303,5.473,30.597,6.984c15.115,2.458,35.413,4.859,50.665,6.232
									c16.249,1.462,38.161,0.808,54.374-1.012c8.58-0.963,20.084-2.052,28.508-3.94c16.191-3.629,37.585-9.39,53.397-14.419
									c16.213-5.157,36.506-15.75,51.369-24.029c8.798-4.901,20.189-12.138,28.099-18.372
									c13.344-10.516,31.007-24.9,42.585-37.334c10.81-11.609,24.297-27.995,33.436-40.96
									c8.483-12.036,18.572-28.979,25.144-42.156c8.076-16.193,17.1-38.652,23.044-55.744c4.634-13.325,9.172-31.64,12.139-45.432
									c2.7-12.551,5.686-29.454,6.884-42.236c1.912-20.411,3.081-47.749,3.467-68.245
									C1457.043,1544.343,1456.25,1527.564,1455.239,1515.016z"
                                        clip-path="url(#b)"></path>
                                </g>
                                <g>
                                    <path fill="#d96241" d="M812.921,1316.623c-75.555-43.625-144.007-47.676-193.433-18.951l-41.152,23.916
									c0.158-0.092,0.327-0.165,0.486-0.256c-49.069,28.24-79.527,88.63-79.77,174.603
									c54.995,188.568,444.162,339.762,510.491,338.062c28.011-0.718,75.415-45.76,74.301-48.087
									C1084.333,1613.404,963.038,1403.298,812.921,1316.623z"></path>
                                    <g>
                                        <path fill="#b3b3b3"
                                            d="M560.9 1540.246c24.009 20.08 48.465 38.762 73.781 56.29 25.243 17.587 51.15 34.138 77.498 50.038 26.349 15.897 53.097 31.198 80.124 46.183 26.992 15.081 54.339 29.6 81.627 44.955-30.294-7.974-59.623-19.016-88.279-31.562-28.609-12.659-56.478-27.082-83.312-43.309-26.83-16.216-52.645-34.267-76.721-54.477C601.666 1588.081 579.134 1565.767 560.9 1540.246zM605.682 1519.417c17.696 9.797 34.544 20.102 51.451 30.274l50.408 30.686c16.777 10.251 33.524 20.58 50.227 31.158 16.673 10.643 33.358 21.383 49.573 33.493-19.628-4.961-38.38-12.148-56.663-20.325-18.251-8.246-35.98-17.635-53.065-28.11-17.085-10.472-33.544-22.02-49.092-34.738C633.032 1549.079 618.315 1535.243 605.682 1519.417z"></path>
                                    </g>
                                    <path fill="#69584f" d="M1011.114,1744.834c-8.514-27.202-17.567-53.912-28.797-79.747
									c-2.621-6.517-5.766-12.832-8.615-19.243c-2.906-6.391-5.753-12.795-9.102-18.976c-3.253-6.22-6.372-12.491-9.5-18.75
									c-3.337-6.159-6.832-12.233-10.232-18.344l-5.129-9.148l-5.555-8.903l-10.985-17.844
									c-7.972-11.475-15.259-23.39-23.793-34.434c-16.18-22.714-34.202-44.01-53.082-64.367l-14.427-15.025
									c-4.936-4.871-10.107-9.49-15.132-14.268c-2.532-2.366-5.002-4.809-7.586-7.115l-7.945-6.682l-7.945-6.689
									c-2.651-2.227-5.254-4.521-8.069-6.521l-16.589-12.45c-5.594-4.058-11.492-7.629-17.214-11.505
									c-2.902-1.867-5.726-3.884-8.695-5.634l-8.942-5.195c-2.94-1.822-6.003-3.382-9.043-5.001
									c-3.057-1.576-6.052-3.319-9.167-4.768c-24.737-11.942-51.001-21.256-78.385-24.19
									c-27.255-3.358-55.704,0.086-81.567,12.199c11.615-8.268,24.926-14.367,38.927-18.251
									c14.011-3.929,28.69-5.458,43.324-5.403c14.638,0.245,29.266,2.13,43.55,5.391c14.251,3.375,28.161,8.068,41.665,13.636
									c13.391,5.764,26.707,11.917,39.051,19.615c6.202,3.791,12.632,7.289,18.631,11.391l17.863,12.513
									c23.136,17.535,45.093,36.68,64.727,57.958c5.138,5.113,9.684,10.742,14.458,16.171l7.093,8.202
									c2.41,2.698,4.684,5.503,6.851,8.394l13.231,17.152c4.397,5.724,8.347,11.772,12.479,17.682
									c8.429,11.715,15.653,24.22,23.244,36.451c3.551,6.267,6.997,12.593,10.435,18.914l5.112,9.502l4.672,9.732
									c13.08,25.627,23.126,52.679,32.097,79.857C1001.44,1688.556,1007.655,1716.584,1011.114,1744.834z"></path>
                                </g>
                                <g>
                                    <g>
                                        <g>
                                            <g>
                                                <polygon fill="#99452c"
                                                    points="1868.422 813.245 1868.246 875.263 1777.518 927.992 1777.694 865.974"></polygon>
                                            </g>
                                            <path fill="#c2573a" d="M1729.117,852.391c-16.177-9.34-24.259-21.604-24.224-33.851l-0.176,62.018
											c-0.035,12.247,8.048,24.511,24.224,33.851c13.65,7.881,30.853,12.402,48.577,13.583l0.176-62.018
											C1759.97,864.794,1742.767,860.273,1729.117,852.391z"></path>
                                            <g>
                                                <path fill="#ff734f" d="M1844.798,785.16c13.65,7.881,21.511,17.832,23.624,28.085l-90.729,52.729
												c-17.724-1.181-34.927-5.702-48.577-13.583c-32.142-18.558-32.329-48.662-0.379-67.23
												C1760.689,766.592,1812.656,766.602,1844.798,785.16z"></path>
                                            </g>
                                        </g>
                                    </g>
                                    <g>
                                        <g>
                                            <path fill="#7d7d7d" d="M2102.234,645.386c-0.263-0.88-1.287-4.03-3.419-7.63c-2.003-3.381-3.78-5.307-5.077-6.712
											c-1.39-1.506-3.792-3.496-5.354-4.436c-2.222-1.336-3.916-2.27-7.086-3.047c-2.849-0.697-5.576-0.35-5.877-0.308
											c-2.798,0.389-4.264,1.165-5.683,1.915c3.249-1.888,7.723-1.673,12.688,1.094c10.096,5.626,18.396,19.674,18.54,31.377
											c0.073,5.948-1.975,10.145-5.333,12.096c2.173-1.327,5.264-3.694,7.011-8.904c0.504-1.502,1.086-3.981,0.999-7.264
											C2103.542,649.76,2102.658,646.806,2102.234,645.386z"></path>
                                            <path fill="#999" d="M2082.425,626.262c-4.965-2.767-9.439-2.982-12.688-1.094l-99.341,57.735
											c3.249-1.888,7.723-1.673,12.688,1.094c10.096,5.626,18.396,19.675,18.54,31.377c0.073,5.948-1.975,10.145-5.333,12.096
											l99.341-57.735c3.357-1.951,5.406-6.148,5.333-12.096C2100.821,645.936,2092.521,631.888,2082.425,626.262z"></path>
                                            <g>
                                                <path fill="#595959" d="M1954.175,701.326c-0.143-11.703,7.925-16.629,18.021-11.002
												c10.096,5.626,18.396,19.674,18.54,31.377c0.143,11.703-7.925,16.629-18.021,11.002
												C1962.619,727.077,1954.319,713.029,1954.175,701.326z"></path>
                                            </g>
                                            <path fill="#7d7d7d" d="M2008.244,704.463c-6.761-18.209-21.195-33.115-35.102-36.247
											c-1.022-0.23-4.131-0.931-7.934-0.451c-3.344,0.422-5.342,1.479-6.947,2.328c5.413-3.146,12.869-2.788,21.143,1.823
											c16.823,9.376,30.655,32.784,30.894,52.285c0.121,9.911-3.292,16.905-8.886,20.156c3.005-1.836,4.921-3.786,6.833-6.955
											c0.266-0.441,1.196-2.069,2-4.511c0.601-1.826,0.776-2.851,1.161-5.095
											C2011.694,726.101,2012.905,717.017,2008.244,704.463z"></path>
                                            <path fill="#7d7d7d" d="M1975.392,674.246c-8.273-4.611-15.729-4.969-21.143-1.823
											c-0.751,0.459-2.51,1.534-4.069,3.241c-1.951,2.135-2.961,4.002-3.39,4.925c-0.603,1.297-1.513,3.256-2.12,6.264
											c-0.609,3.018-0.64,4.771-0.693,7.675c0.137,7.568,2.071,15.235,5.914,23.439c0.971,2.073,3.094,6.236,6.403,10.828
											c3.347,4.643,5.855,7.093,8.069,9.254c1.607,1.569,5.269,4.506,7.253,5.699c3.063,1.841,3.063,1.841,5.52,2.977
											c1.195,0.552,2.855,1.15,4.129,1.483c3.098,0.81,5.762,1.117,7.921,0.914c1.43-0.135,2.559-0.242,3.794-0.607
											c1.923-0.57,2.337-0.725,4.422-1.828c5.595-3.251,9.007-10.245,8.886-20.156
											C2006.047,707.031,1992.215,683.622,1975.392,674.246z M1972.715,732.703c-10.096-5.626-18.396-19.674-18.54-31.377
											c-0.143-11.703,7.925-16.628,18.021-11.002c10.096,5.626,18.396,19.674,18.539,31.377
											C1990.879,733.404,1982.811,738.329,1972.715,732.703z M1961.564,676.728c-0.805-0.054-1.589-0.053-2.35,0.003
											C1959.975,676.674,1960.759,676.673,1961.564,676.728z M1947.363,685.398c0.662-1.495,1.478-2.812,2.43-3.939
											c1.429-1.691,3.165-2.955,5.146-3.756c-1.982,0.801-3.718,2.065-5.146,3.756
											C1948.841,682.586,1948.025,683.903,1947.363,685.398c-0.993,2.243-1.639,4.888-1.877,7.898
											C1945.724,690.286,1946.37,687.641,1947.363,685.398z"></path>
                                            <path fill="#999" d="M1979.403,671.915c-8.273-4.611-15.729-4.969-21.143-1.823l-4.011,2.331
											c5.413-3.146,12.87-2.788,21.143,1.823c16.823,9.375,30.655,32.784,30.894,52.285c0.121,9.911-3.291,16.905-8.886,20.156
											l4.011-2.331c5.594-3.251,9.007-10.245,8.886-20.156C2010.058,704.699,1996.226,681.29,1979.403,671.915z"></path>
                                        </g>
                                        <g>
                                            <path fill="#e0e0e0" d="M1904.903,729.839l-27.986,75.939l-111.531,64.819l-131.001,16.46l-85.797,49.863
											c-9.793,5.692-9.742,14.916,0.116,20.607c9.84,5.682,25.763,5.681,35.557-0.01l75.361-43.798l123.861-15.551
											c4.723-0.593,9.279-2.132,13.395-4.524l115.111-66.899c7.134-4.146,12.598-10.651,15.451-18.394l23.573-63.98
											c0,0,30.216-17.54,30.304-17.635c9.41-8.384-6.159-39.012-24.614-27.468L1904.903,729.839z"></path>
                                        </g>
                                        <g>
                                            <path fill="#616161" d="M1627.475,930.395c-4.463-11.967-11.165-19.986-14.763-23.701
											c-8.216-8.482-15.627-11.534-20.398-12.601c-1.015-0.227-4.103-0.917-7.874-0.44c-3.315,0.42-5.295,1.467-6.886,2.309
											c5.413-3.146,12.869-2.788,21.143,1.823c16.823,9.376,30.655,32.785,30.894,52.285c0.121,9.911-3.292,16.905-8.886,20.156
											c2.986-1.825,4.889-3.762,6.785-6.91c0.265-0.44,1.193-2.066,1.992-4.494c0.608-1.85,0.803-2.998,1.158-5.084
											C1630.93,952.035,1632.138,942.9,1627.475,930.395z"></path>
                                            <path fill="#999" d="M1598.697,897.785c-8.273-4.611-15.729-4.969-21.143-1.823l-4.011,2.331
											c5.413-3.146,12.87-2.788,21.143,1.823c16.823,9.376,30.655,32.785,30.894,52.286c0.121,9.911-3.291,16.905-8.886,20.156
											l4.011-2.331c5.594-3.251,9.007-10.245,8.886-20.156C1629.352,930.569,1615.52,907.161,1598.697,897.785z"></path>
                                            <path fill="#616161" d="M1594.686,900.116c-8.273-4.611-15.729-4.969-21.143-1.823
											c-0.756,0.462-2.526,1.544-4.095,3.26c-1.961,2.145-2.979,4.023-3.412,4.952c-0.604,1.298-1.518,3.258-2.13,6.286
											c-0.61,3.02-0.642,4.776-0.694,7.686c0.136,7.56,2.068,15.219,5.904,23.412c0.969,2.069,3.087,6.223,6.391,10.808
											c3.37,4.676,5.859,7.1,8.056,9.239c1.628,1.585,5.224,4.479,7.247,5.694c3.078,1.849,3.078,1.849,5.534,2.983
											c1.197,0.553,2.861,1.152,4.137,1.485c3.116,0.811,5.798,1.117,7.97,0.911c1.373-0.13,2.558-0.243,3.823-0.619
											c1.882-0.559,2.336-0.73,4.419-1.832c5.594-3.252,9.007-10.245,8.886-20.156
											C1625.341,932.901,1611.509,909.492,1594.686,900.116z M1616.482,939.878c-0.16-0.535-0.329-1.068-0.506-1.602
											C1616.152,938.809,1616.322,939.343,1616.482,939.878z M1611.013,927.139c-0.81-1.435-1.654-2.851-2.567-4.217
											C1609.359,924.288,1610.203,925.704,1611.013,927.139z M1591.87,958.654c-10.096-5.627-18.396-19.675-18.54-31.377
											c-0.143-11.703,7.925-16.629,18.021-11.002c10.096,5.626,18.396,19.674,18.539,31.377
											C1610.034,959.354,1601.966,964.28,1591.87,958.654z M1591.228,906.247c1.859,1.036,3.677,2.267,5.435,3.659
											c2.637,2.089,5.141,4.545,7.448,7.263c-2.307-2.718-4.81-5.174-7.448-7.263
											C1594.906,908.513,1593.088,907.283,1591.228,906.247c-3.718-2.072-7.25-3.173-10.453-3.389
											C1583.978,903.074,1587.51,904.174,1591.228,906.247z M1576.87,954.958c1.446,1.921,2.989,3.74,4.61,5.428
											C1579.86,958.699,1578.317,956.879,1576.87,954.958z M1583.967,962.815c1.694,1.548,3.457,2.948,5.27,4.171
											C1587.424,965.763,1585.662,964.363,1583.967,962.815z"></path>
                                            <g>
                                                <path fill="#595959" d="M1474.049,992.458c-0.092-7.496,5.076-10.651,11.543-7.047
												c6.467,3.604,11.783,12.602,11.875,20.098c0.092,7.496-5.076,10.651-11.543,7.047
												C1479.457,1008.952,1474.141,999.954,1474.049,992.458z"></path>
                                            </g>
                                            <path fill="#999" d="M1591.351,916.274c-4.965-2.767-9.439-2.982-12.688-1.094l-99.341,57.735
											c3.249-1.888,7.723-1.673,12.688,1.094c10.096,5.626,18.396,19.675,18.54,31.377c0.073,5.948-1.975,10.145-5.333,12.096
											l99.341-57.735c3.357-1.951,5.406-6.148,5.333-12.096C1609.748,935.949,1601.447,921.901,1591.351,916.274z"></path>
                                            <path fill="#7d7d7d" d="M1492.01,974.009c-4.965-2.767-9.439-2.982-12.688-1.094
											c-7.802,4.764-7.951,12.823-8.007,15.857c0.163,9.039,5.041,18.921,12.428,25.177c5.174,4.382,9.893,5.158,11.443,5.413
											c0.925,0.152,3.064,0.302,5.218-0.102c2.248-0.421,3.552-1.111,4.813-1.778c3.358-1.951,5.406-6.148,5.333-12.096
											C1510.406,993.683,1502.106,979.635,1492.01,974.009z M1485.924,1012.556c-6.467-3.604-11.784-12.602-11.875-20.098
											c-0.092-7.496,5.076-10.651,11.543-7.048c6.467,3.604,11.783,12.602,11.875,20.098
											C1497.559,1013.005,1492.391,1016.16,1485.924,1012.556z"></path>
                                        </g>
                                    </g>
                                    <g>
                                        <g>
                                            <g>
                                                <g>
                                                    <path fill="#dbdbdb" d="M2170.724,353.928c-7.312-4.25-17.441-3.651-28.622,2.805l-62.134,35.875
													c-22.214,12.826-40.158,43.908-40.086,69.416l0.203,71.421c0.036,12.682,4.512,21.604,11.73,25.799l12.711,7.388
													c-7.219-4.195-11.694-13.117-11.73-25.799l-0.203-71.421c-0.072-25.508,17.871-56.589,40.086-69.416l62.134-35.875
													c11.181-6.456,21.31-7.055,28.622-2.805L2170.724,353.928z"></path>
                                                    <g>
                                                        <path fill="#798f99" d="M2154.814,364.121c22.214-12.826,40.275-2.533,40.348,22.974l0.202,71.421
														c0.073,25.528-17.871,56.609-40.086,69.436l-62.134,35.875c-22.214,12.826-40.275,2.533-40.348-22.994l-0.203-71.421
														c-0.072-25.508,17.871-56.589,40.086-69.416L2154.814,364.121z"></path>
                                                    </g>
                                                </g>
                                            </g>
                                            <path fill="#fff" d="M1880.588,832.602c-0.902,0-1.822-0.137-2.728-0.424c-4.748-1.504-7.375-6.572-5.871-11.32
											l77.688-245.224c3.714-11.716,11.484-21.776,21.881-28.324l125.801-79.213c4.222-2.647,9.786-1.387,12.438,2.827
											c2.652,4.215,1.386,9.783-2.825,12.437l-125.805,79.211c-6.795,4.279-11.871,10.853-14.298,18.51l-77.688,245.223
											C1887.964,830.147,1884.413,832.602,1880.588,832.602z"></path>
                                        </g>
                                        <g>
                                            <path fill="#fff" d="M1805.784,870.662c-0.961,0-1.943-0.156-2.905-0.482l-217.141-73.924
											c-6.209-2.115-13.064-1.511-18.809,1.655l-63.642,35.083c-4.359,2.41-9.844,0.818-12.251-3.545
											c-2.403-4.362-0.818-9.847,3.544-12.252l63.642-35.083c10.178-5.609,22.329-6.681,33.329-2.932l217.137,73.922
											c4.716,1.606,7.237,6.729,5.633,11.444C1813.042,868.3,1809.539,870.662,1805.784,870.662z"></path>
                                        </g>
                                    </g>
                                </g>
                                <g>
                                    <g>
                                        <g>
                                            <g>
                                                <path fill="#666" d="M1876.291,739.478c19.619-11.328,37.392-12.38,50.226-4.922l29.572,17.186
												c-12.834-7.459-30.607-6.406-50.226,4.921c-38.987,22.511-70.5,77.076-70.373,121.877
												c0.063,22.257,7.923,37.918,20.598,45.284l-29.572-17.186c-12.675-7.366-20.534-23.027-20.598-45.284
												C1805.791,816.553,1837.304,761.988,1876.291,739.478z"></path>
                                                <g>
                                                    <path fill="#898989" d="M1905.863,756.664c-38.987,22.511-70.5,77.076-70.373,121.877
													c0.127,44.802,31.846,62.879,70.833,40.368c38.987-22.511,70.481-77.086,70.354-121.888
													S1944.85,734.154,1905.863,756.664z"></path>
                                                </g>
                                            </g>
                                        </g>
                                    </g>
                                    <path fill="#fff352" d="M1905.733,756.757c18.994-10.586,36.112-11.408,48.541-4.185
									c3.143,1.921,7.321,4.535,10.216,6.812c3.651,2.871,8.27,7.022,11.554,10.306c2.749,2.748,9.22,10.189,14.038,18.682
									c1.979,3.488,4.333,8.303,5.897,11.995c1.291,3.048,2.767,7.227,3.604,10.43c1.031,3.945,2.264,9.258,2.8,13.3
									c0.34,2.57,0.655,6.014,0.818,8.601c0.12,1.897,0.087,4.435,0.124,6.335c-0.103,5.794-0.52,9.323-0.973,12.72
									c-0.475,3.555-1.514,8.515-2.186,10.917c-1.437,5.135-2.231,7.852-4.561,13.449c-2.508,6.025-5.839,11.637-5.98,11.873
									c-6.781,11.382-13.16,17.6-17.382,21.714c-0.153,0.149-3.823,3.71-9.487,7.846c-2.881,2.104-6.921,4.639-10.024,6.399
									c-7.682,4.359-16.42,7.51-21.568,8.885c-3.916,1.046-9.218,2.158-13.229,2.733c-3.583,0.513-8.415,0.919-12.035,0.886
									c-4.465-0.04-10.423-0.398-14.854-0.951c-3.523-0.44-8.164-1.448-11.596-2.354c-3.069-0.81-7.13-2.053-10.061-3.271
									c-4.358-1.812-10.012-4.599-14.183-6.807c-12.844-7.465-20.679-23.522-20.401-46.276
									C1835.354,832.025,1867.109,778.281,1905.733,756.757z"></path>
                                </g>
                                <path fill="#ff9378" d="M2261.925,1618.912c-43.419,7.159-182.925,75.181-233.418,120.479
								c31.968-179.478-49.819-496.866-177.921-624.22c25.321-90.035,157.552-171.63,230.701-146.308
								C2211.771,1079.285,2310.8,1419.911,2261.925,1618.912z"></path>
                                <path fill="#e0e0e0"
                                    d="M1558.409 1042.279c-1.53 0-3.074-.45-4.426-1.387-3.537-2.448-4.421-7.302-1.971-10.838 9.357-13.52 26.282-23.768 44.199-34.616 39.349-23.826 62.129-40.721 46.768-74.372-1.786-3.913-.062-8.535 3.852-10.321 3.913-1.788 8.536-.064 10.32 3.851 22.231 48.694-19.411 73.908-52.871 94.169-16.454 9.963-31.996 19.374-39.46 30.155C1563.309 1041.107 1560.88 1042.279 1558.409 1042.279zM2000.877 763.999c-17.393 0-33.638-6.621-46.674-25.289-2.462-3.527-1.601-8.382 1.926-10.846 3.534-2.459 8.389-1.599 10.847 1.928 21.674 31.036 55.053 18.234 99.843-3.249 19.402-9.304 37.729-18.093 53.438-19.236 4.25-.315 8.022 2.915 8.333 7.205.311 4.291-2.915 8.023-7.206 8.336-12.759.927-29.793 9.097-47.826 17.744C2050.764 751.522 2024.747 763.999 2000.877 763.999z"></path>
                            </g>
                        </g>
                        <g>
                            <g>
                                <path fill="#dbdbdb" d="M1520.39,730.63c-7.31-4.248-17.43-3.65-28.598,2.799l-62.151,35.885
								c-22.214,12.827-40.158,43.908-40.086,69.436l0.202,71.401c0.036,12.682,4.511,21.604,11.73,25.799l12.711,7.388
								c-7.219-4.195-11.694-13.117-11.73-25.799l-0.202-71.401c-0.073-25.528,17.871-56.609,40.086-69.436l62.151-35.885
								c11.168-6.448,21.288-7.047,28.598-2.799L1520.39,730.63z"></path>
                                <g>
                                    <path fill="#798f99" d="M1504.504,740.816c22.197-12.816,40.258-2.523,40.33,23.005l0.202,71.401
									c0.072,25.528-17.871,56.609-40.068,69.426l-62.151,35.885c-22.214,12.826-40.275,2.533-40.348-22.995l-0.202-71.401
									c-0.073-25.528,17.871-56.609,40.085-69.436L1504.504,740.816z"></path>
                                </g>
                            </g>
                        </g>
                    </g>
                    <g>
                        <g>
                            <g>
                                <g>
                                    <g>
                                        <path fill="#459cff" d="M1499.44,1058.715l-345.803,200.971c15.379,8.88,27.804,30.404,27.754,48.077
										c-0.025,8.779-3.124,14.957-8.123,17.862l345.803-200.973c4.999-2.904,8.098-9.081,8.123-17.861
										C1527.244,1089.119,1514.818,1067.594,1499.44,1058.715z"></path>
                                        <path fill="#3e88e3" d="M1152.783,858.559c-22.068-12.741-39.971-43.743-39.899-69.113
										c0.06-21.279,8.744-40.702,17.93-61.265c11.355-25.462,24.234-54.305,24.349-94.681
										c0.341-120.22-39.288-424.195-40.973-437.073c-2.217-16.962-13.98-34.865-27.349-42.584
										c-1.52-0.877-3.062-1.624-4.611-2.221c-6.001-2.32-11.24-2.071-15.227,0.247L721.197,352.839
										c3.987-2.317,9.226-2.567,15.228-0.247c1.55,0.598,3.092,1.344,4.612,2.222c13.369,7.719,25.133,25.623,27.349,42.584
										c1.686,12.879,41.314,316.854,40.974,437.075c-0.115,40.375-12.994,69.218-24.349,94.68
										c-9.186,20.562-17.869,39.986-17.93,61.265c-0.072,25.369,17.832,56.371,39.9,69.113l346.655,200.155l345.804-200.971
										L1152.783,858.559z"></path>
                                    </g>
                                    <g>
                                        <path fill="#254876" d="M741.036,354.814c13.369,7.719,25.133,25.623,27.35,42.584
										c1.685,12.879,41.314,316.853,40.973,437.074c-0.115,40.376-12.994,69.219-24.348,94.681
										c-9.186,20.562-17.87,39.986-17.93,61.264c-0.072,25.37,17.832,56.372,39.899,69.113l346.656,200.156
										c15.379,8.88,27.805,30.404,27.755,48.076c-0.05,17.673-12.557,24.801-27.936,15.921l-346.656-200.156
										c-52.778-30.474-95.58-104.615-95.408-165.266c0.096-33.758,11.27-58.762,22.076-82.952
										c10.351-23.187,20.124-45.086,20.203-72.993c0.326-114.953-39.837-423.031-40.242-426.131
										c-2.478-18.894,7.819-29.461,22.999-23.594C737.974,353.19,739.517,353.937,741.036,354.814z"></path>
                                    </g>
                                </g>
                            </g>
                            <path fill="#5e5e5e"
                                d="M787.877 358.011c-2.628 0-5.185-1.364-6.592-3.804-2.099-3.638-.851-8.287 2.785-10.386l274.021-158.099c3.636-2.103 8.285-.851 10.386 2.786 2.099 3.638.851 8.287-2.785 10.386L791.67 356.992C790.472 357.684 789.167 358.011 787.877 358.011zM1217.878 1274.985c-2.628 0-5.185-1.362-6.592-3.804-2.099-3.638-.851-8.289 2.785-10.388l274.021-158.096c3.639-2.103 8.285-.854 10.386 2.785 2.099 3.638.851 8.289-2.785 10.386l-274.021 158.099C1220.473 1274.656 1219.167 1274.985 1217.878 1274.985z"></path>
                            <path fill="#d6d6d6" d="M830.034,1026.242c-2.628,0-5.185-1.364-6.592-3.804c-2.099-3.638-0.851-8.289,2.785-10.386
							l274.021-158.097c3.634-2.101,8.285-0.854,10.386,2.786c2.099,3.638,0.851,8.289-2.785,10.386l-274.021,158.098
							C832.629,1025.915,831.323,1026.242,830.034,1026.242z"></path>
                        </g>
                        <g>
                            <g>
                                <polygon fill="#c5c5c5"
                                    points="1139.745 456.635 1139.86 497.137 801.21 690.214 801.095 649.712"></polygon>
                            </g>
                            <g>
                                <g>
                                    <path fill="#7b7b7b" d="M1142.729,461.546c-2.314-1.336-4.66-2.614-7.014-3.877
									c-0.018,6.508-0.037,13.016-0.055,19.524c-0.013,4.671-0.026,9.342-0.04,14.012c-0.006,2.188-0.891,6.521-0.024,8.564
									c0.699,1.65,4.205,2.729,5.859,3.668c4.046,2.298,8.017,4.729,11.899,7.293c6.846,4.52,13.421,9.464,19.572,14.896
									c10.885,9.61,20.529,20.817,27.417,33.651c6.645,12.381,10.537,26.216,10.497,40.312
									c0.039-13.874,0.096-27.748,0.118-41.623c0.036-23.668-10.167-45.301-25.721-62.792
									C1173.17,481.606,1158.406,470.598,1142.729,461.546z"></path>
                                    <path fill="#999" d="M1218.599,561.271c-1.652,30.164-20.063,55.836-42.591,74.626
									c-23.785,19.839-52.715,33.254-82.108,42.45c-61.014,19.088-127.48,21.182-190.097,9.328
									c-34.883-6.604-69.367-18.554-99.608-37.334c0,0,0,0,0,0c-0.027,9.613-0.055,19.226-0.082,28.84
									c-0.008,2.816-0.016,5.632-0.024,8.449c-0.004,1.287-0.455,3.507-0.013,4.732c0.831,2.306,6.626,4.546,8.836,5.789
									c5.025,2.827,10.167,5.482,15.381,7.944c41.992,19.825,88.581,29.034,134.785,30.993
									c47.699,2.022,96.428-3.858,141.548-19.799c40.791-14.411,84.058-38.837,104.344-78.839
									c7.106-14.013,9.664-28.792,9.708-44.344c0.032-11.444,0.065-22.888,0.097-34.332c0.003-0.904,0.005-1.808,0.008-2.712
									C1218.779,558.465,1218.676,559.869,1218.599,561.271z"></path>
                                    <g>
                                        <path fill="#dcdcdc" d="M1148.241,458.342c32.206,18.596,63.582,47.418,69.569,85.942
										c5.572,35.858-14.209,68.408-40.779,90.813c-31.533,26.59-71.791,42.092-111.691,50.845
										c-42.147,9.246-85.992,11.248-128.87,6.654c-40.788-4.37-81.66-14.761-118.05-34.052c-4.84-2.566-9.571-5.315-14.225-8.205
										c1.02-0.593,2.039-1.185,3.059-1.778c1.75-1.017,1.848-1.482,3.565-0.75c4.934,2.105,9.59,5.691,14.388,8.191
										c8.682,4.524,17.64,8.511,26.775,12.025c19.336,7.438,39.457,12.782,59.843,16.414
										c42.513,7.574,86.496,7.976,129.156,1.306c40.367-6.311,80.964-19.093,115-42.204
										c29.599-20.098,55.912-51.032,54.953-88.74c-0.965-37.98-28.976-68.266-59.259-87.799
										c-5.185-3.344-10.526-6.418-15.96-9.336c1.422-0.827,2.891-1.979,4.42-2.569c1.051-0.405,0.626-0.495,1.687-0.319
										C1143.706,455.094,1146.611,457.401,1148.241,458.342z"></path>
                                    </g>
                                </g>
                            </g>
                        </g>
                        <g>
                            <g>
                                <polygon fill="#c5c5c5"
                                    points="1102.347 793.345 1120.723 840.263 782.072 1033.34 763.697 986.422"></polygon>
                            </g>
                            <g>
                                <g>
                                    <path fill="#7b7b7b" d="M1169.766,806.194c-2.906-8.249-12.45-11.902-20.198-13.847
									c-15.306-3.842-31.662-3.373-47.279-2.378c4.556,12.934,9.112,25.868,13.668,38.803c1.003,2.846,2.005,5.692,3.007,8.538
									c0.165,0.47,0.349,1.678,0.714,2.026c1.108,1.057,4.492,0.15,6.164,0.072c13.545-0.632,27.621-0.628,40.872,2.623
									c7.861,1.928,17.635,5.565,20.587,13.944C1181.457,839.381,1175.611,822.787,1169.766,806.194z"></path>
                                    <path fill="#999" d="M1195.754,859.684c0.303-4.104-1.204-7.657-2.532-11.426
									c-2.022-5.74-4.044-11.48-6.066-17.22c-3.235-9.184-6.47-18.368-9.705-27.552c4.555,12.928-8.606,26.84-16.823,34.984
									c-10.701,10.605-23.072,19.559-35.648,27.795c-25.944,16.991-53.661,31.265-81.859,44.109
									c-56.925,25.929-116.692,46.758-177.592,61.115c-33.263,7.842-67.339,14.307-101.596,15.054
									c2.455,6.968,4.909,13.937,7.364,20.905c1.898,5.389,3.796,10.777,5.694,16.166c1.263,3.586,2.176,7.731,3.916,11.117
									c0.194,0.377,0.233,1.32,0.557,1.58c0.833,0.668,5.249-0.135,6.377-0.184c2.795-0.12,5.592-0.273,8.382-0.483
									c9.6-0.724,19.166-1.777,28.697-3.132c19.561-2.781,38.957-6.694,58.18-11.242c37.74-8.929,74.931-20.467,111.297-33.92
									c38.142-14.11,75.676-30.219,111.458-49.597c18.617-10.082,36.912-20.969,53.83-33.739
									c8.75-6.604,17.235-13.791,24.436-22.082C1189.492,875.746,1195.128,868.15,1195.754,859.684z"></path>
                                    <g>
                                        <path fill="#999" d="M1114.593,786.328c15.741-0.685,32.942-0.86,47.956,4.661
										c8.008,2.944,15.944,8.591,15.744,17.991c-0.235,11.01-9.163,20.956-16.43,28.305
										c-14.225,14.385-31.389,25.895-48.58,36.394c-34.614,21.139-71.656,38.333-109.251,53.432
										c-38.99,15.659-78.967,29.016-119.616,39.665c-34.953,9.157-70.753,16.74-106.874,19.167
										c-4.532,0.305-9.067,0.499-13.608,0.598c1.753-1.018,3.717-2.685,5.643-3.278c2.204-0.679,5.593-0.144,7.942-0.259
										c1.885-0.092,3.769-0.204,5.652-0.332c8.048-0.547,16.074-1.396,24.071-2.454c18.251-2.413,36.358-5.89,54.302-9.989
										c40.427-9.235,80.173-21.574,118.995-36.116c37.822-14.167,75.037-30.454,110.311-50.184
										c18.907-10.575,37.598-22.103,54.162-36.141c9.577-8.116,20.717-18.167,24.573-30.583
										c8.241-26.535-35.139-27.901-50.725-27.849c-5.53,0.018-11.052,0.261-16.571,0.612c1.41-0.819,2.794-1.735,4.249-2.468
										C1109.051,786.233,1111.756,786.451,1114.593,786.328z"></path>
                                    </g>
                                </g>
                            </g>
                        </g>
                    </g>
                </g>
            </g>
        </g>
    </switch>
</svg>