<svg width="2310" height="2700" viewBox="0 0 2310 2700" fill="none" xmlns="http://www.w3.org/2000/svg">
<g opacity="0.1">
<path d="M27.4033 1558.91L332.793 1381.42L2309.09 2522.52L2003.7 2700L27.4033 1558.91Z" fill="black"/>
</g>
<path d="M1471.76 937.772L1408.65 940.645L1359.72 748.149H1471.76V937.772Z" fill="#C2573A"/>
<path d="M518.878 1258.2C464.588 1226.85 415.41 1223.95 379.899 1244.58L280.508 1302.35C316.019 1281.71 365.198 1284.62 419.487 1315.96C527.35 1378.24 614.518 1529.23 614.167 1653.19C613.992 1714.76 592.251 1758.09 557.19 1778.47L656.581 1720.7C691.642 1700.33 713.384 1657 713.558 1595.42C713.91 1471.47 626.742 1320.48 518.878 1258.2Z" fill="#737373"/>
<path d="M557.177 1778.47C633.331 1734.22 633.131 1591.77 556.732 1460.29C480.332 1328.81 356.663 1258.1 280.509 1302.35C204.355 1346.6 204.554 1489.06 280.954 1620.54C357.354 1752.01 481.023 1822.73 557.177 1778.47Z" fill="#525252"/>
<path d="M425.362 1376.78C506.267 1423.49 571.621 1536.73 571.357 1629.7C571.094 1722.68 505.312 1760.17 424.407 1713.45C343.502 1666.74 278.118 1553.48 278.382 1460.54C278.646 1367.57 344.457 1330.07 425.362 1376.78Z" fill="white"/>
<path d="M425.173 1441.42C475.011 1470.2 515.269 1539.95 515.107 1597.22C514.945 1654.49 474.423 1677.59 424.585 1648.81C374.747 1620.04 334.471 1550.27 334.633 1493.02C334.795 1435.75 375.335 1412.64 425.173 1441.42Z" fill="#FF8A4F"/>
<path d="M987.513 1035.84C933.223 1004.49 884.044 1001.58 848.534 1022.22L749.143 1079.99C784.654 1059.35 833.833 1062.26 888.122 1093.6C995.985 1155.88 1083.15 1306.87 1082.8 1430.82C1082.63 1492.4 1060.89 1535.73 1025.83 1556.11L1125.22 1498.34C1160.28 1477.97 1182.02 1434.64 1182.19 1373.06C1182.54 1249.11 1095.38 1098.12 987.513 1035.84Z" fill="#737373"/>
<path d="M1025.81 1556.12C1101.96 1511.87 1101.76 1369.41 1025.36 1237.93C948.965 1106.45 825.296 1035.74 749.142 1079.99C672.988 1124.24 673.187 1266.7 749.587 1398.18C825.986 1529.66 949.656 1600.37 1025.81 1556.12Z" fill="#525252"/>
<path d="M893.996 1154.42C974.901 1201.13 1040.25 1314.37 1039.99 1407.34C1039.73 1500.32 973.946 1537.8 893.041 1491.09C812.136 1444.38 746.753 1331.12 747.016 1238.18C747.28 1145.21 813.091 1107.71 893.996 1154.42Z" fill="white"/>
<path d="M893.807 1219.06C943.645 1247.84 983.903 1317.59 983.741 1374.86C983.579 1432.13 943.057 1455.23 893.219 1426.45C843.381 1397.67 803.105 1327.91 803.267 1270.66C803.429 1213.39 843.969 1190.28 893.807 1219.06Z" fill="#FF8A4F"/>
<path d="M2005.86 2054.99C1951.57 2023.65 1902.39 2020.74 1866.88 2041.38L1767.49 2099.14C1803 2078.5 1852.18 2081.41 1906.47 2112.76C2014.33 2175.03 2101.5 2326.03 2101.15 2449.98C2100.98 2511.56 2079.24 2554.88 2044.17 2575.26L2143.57 2517.5C2178.63 2497.12 2200.37 2453.79 2200.54 2392.21C2200.89 2268.26 2113.73 2117.27 2005.86 2054.99Z" fill="#737373"/>
<path d="M2044.15 2575.27C2120.31 2531.02 2120.11 2388.56 2043.71 2257.08C1967.31 2125.61 1843.64 2054.89 1767.48 2099.15C1691.33 2143.4 1691.53 2285.85 1767.93 2417.33C1844.33 2548.81 1968 2619.52 2044.15 2575.27Z" fill="#525252"/>
<path d="M1906.33 2168.86C1987.23 2215.58 2052.59 2328.82 2052.32 2421.79C2052.06 2514.76 1986.28 2552.25 1905.37 2505.54C1824.47 2458.82 1759.08 2345.57 1759.35 2252.63C1759.61 2159.66 1825.42 2122.15 1906.33 2168.86Z" fill="white"/>
<path d="M1906.14 2233.51C1955.98 2262.28 1996.23 2332.04 1996.07 2389.31C1995.91 2446.58 1955.39 2469.67 1905.55 2440.9C1855.71 2412.12 1815.44 2342.35 1815.6 2285.1C1815.76 2227.83 1856.3 2204.73 1906.14 2233.51Z" fill="#FF8A4F"/>
<path d="M1926.25 2325.52L1805.85 1956.12L1790.66 1964.95L1911.06 2334.34C1915.55 2348.16 1913.23 2359.67 1906.07 2363.83L1921.26 2355.01C1928.42 2350.85 1930.74 2339.33 1926.25 2325.52Z" fill="#A9CAD6"/>
<path d="M1745.3 1963.02L1760.49 1954.2L1805.85 1956.12L1790.66 1964.95L1745.3 1963.02Z" fill="#A2A2A2"/>
<path d="M1790.66 1964.95L1911.06 2334.34C1916.83 2352.08 1911.36 2366.03 1898.85 2365.48C1895.43 2365.34 1891.84 2364.13 1888.3 2362.09C1878.89 2356.66 1869.9 2345.31 1865.71 2332.41L1745.3 1963.02L1790.66 1964.95Z" fill="#617D89"/>
<path d="M242.585 1270.73L766.044 1589.66L1337.53 1934.78L1566.63 1695.21L564.347 1112.71L242.585 1270.73Z" fill="#4F5C61"/>
<path d="M1999.56 1302.65C1976.43 984.554 1820.39 703.616 1641.89 703.616C1463.39 703.616 1325.09 824.376 1318.69 1048.38C1310.07 1350.06 1598.65 1846.86 1311.68 1863.68C1164.63 1872.3 963.678 1675.83 736.721 1563.78C736.721 1563.78 718.205 1578.68 750.475 1615.35C832.298 1708.34 1046.54 1895.06 1285.82 1992.96C1996.82 2283.84 2016.8 1539.68 1999.56 1302.65Z" fill="#FF6740"/>
<path d="M2121.45 2063.69C2104.5 2104.12 2029.69 2114.19 1980.68 2118.28C1883.17 2126.41 1696.26 2023.47 1696.26 2023.47C1723.5 1950.97 1716.37 1770.64 1687.73 1681.61C1717.29 1629.04 1881.73 1550.47 1930.89 1545.72C1948.17 1608.61 1912.43 1799.33 2023.77 1894.18C2101.34 1960.26 2136.87 2026.91 2121.45 2063.69Z" fill="#FF9378"/>
<path d="M926.07 872.661C850.515 829.036 782.063 824.985 732.638 853.71L691.486 877.626C691.644 877.534 691.813 877.461 691.972 877.37C642.903 905.61 612.445 966 612.202 1051.97C667.197 1240.54 1056.36 1391.74 1122.69 1390.04C1150.7 1389.32 1198.11 1344.27 1197 1341.95C1197.48 1169.44 1076.19 959.337 926.07 872.661Z" fill="#D96241"/>
<mask id="mask0_2814_2080" style="mask-type:luminance" maskUnits="userSpaceOnUse" x="0" y="582" width="1590" height="1026">
<path d="M1589.02 1156.36L812.148 1607.85L0.90918 1139.46L285.237 764.855L594.765 582.288L1589.02 1156.36Z" fill="white"/>
</mask>
<g mask="url(#mask0_2814_2080)">
<path d="M238.294 1108.97C272.845 1108.97 300.854 1074.12 300.854 1031.12C300.854 988.117 272.845 953.259 238.294 953.259C203.743 953.259 175.734 988.117 175.734 1031.12C175.734 1074.12 203.743 1108.97 238.294 1108.97Z" fill="#FFF200"/>
</g>
<mask id="mask1_2814_2080" style="mask-type:luminance" maskUnits="userSpaceOnUse" x="0" y="582" width="1590" height="1026">
<path d="M1589.02 1156.36L812.148 1607.85L0.90918 1139.46L285.237 764.855L594.765 582.288L1589.02 1156.36Z" fill="white"/>
</mask>
<g mask="url(#mask1_2814_2080)">
<path d="M1110.24 1365.02C1109.31 1353.46 1107.7 1338.05 1105.8 1326.61C1102.3 1305.54 1096.45 1277.65 1091.64 1256.84C1089.13 1245.98 1084.6 1231.81 1081.42 1221.13C1075.71 1201.97 1062.64 1167.14 1056.61 1153.68C1052.22 1143.89 1046.78 1130.63 1041.95 1121.04C1032.29 1101.89 1019.04 1076.52 1008.33 1057.93C1008.17 1057.65 991.734 1029.21 968.917 997.564C946.187 966.038 927.139 944.367 923.551 940.342C912.741 928.217 894.648 907.922 871.462 886.563C863.638 879.356 853.063 869.89 844.857 863.122C835.02 855.008 821.75 844.343 811.343 836.974C793.967 824.67 777.554 813.049 747.645 796.568C729.855 786.765 705.199 775.335 686.244 768.038C672.748 762.842 654.313 757.084 640.413 753.097C631.363 750.501 619.008 748.149 609.816 746.112C594.863 742.799 574.41 741.139 559.147 739.88C542.885 738.539 520.998 739.24 504.764 740.892C487.642 742.635 464.868 746.427 448.322 751.164C432.451 755.708 411.534 762.956 396.658 770.113C388.973 773.81 378.808 778.944 371.469 783.288C362.806 788.416 351.501 795.698 343.383 801.651C329.683 811.697 312.635 826.794 300.8 838.982C289.752 850.36 276.238 866.786 267.371 879.935C259.138 892.143 248.472 908.752 242.229 922.088C238.413 930.24 232.982 940.969 229.702 949.351C224.711 962.108 218.35 979.274 214.688 992.474C212.144 1001.64 208.903 1013.93 207.046 1023.26C204.542 1035.85 201.705 1052.75 200.163 1065.5C195.621 1103.04 196.798 1139.86 196.812 1140.22C197.23 1150.86 197.812 1165.05 198.725 1175.66C199.72 1187.22 201.21 1202.63 203.169 1214.07C206.777 1235.12 212.517 1263.03 217.326 1283.84C219.835 1294.7 224.274 1308.9 227.547 1319.55C236.257 1347.91 249.706 1381.08 252.357 1387C256.745 1396.79 262.187 1410.05 267.02 1419.64C271.851 1429.22 278.083 1442.1 283.127 1451.57C288.18 1461.06 295.189 1473.56 300.669 1482.81C311.6 1501.26 327.603 1524.98 339.726 1542.67C345.876 1551.64 354.985 1562.95 361.55 1571.63C367.56 1579.57 381.779 1597.27 409.489 1626.59C418.772 1636.42 440.724 1658.21 464.114 1677.57C494.211 1702.47 516.237 1717.09 526.688 1723.58C535.685 1729.17 547.705 1736.61 556.98 1741.72C567.277 1747.4 581.17 1754.72 591.889 1759.55C601.052 1763.69 613.29 1769.2 622.731 1772.65C636.313 1777.62 654.525 1784.12 668.562 1787.59C677.701 1789.86 689.865 1793.07 699.159 1794.58C714.274 1797.04 734.572 1799.44 749.824 1800.81C766.073 1802.27 787.985 1801.62 804.198 1799.8C812.778 1798.83 824.282 1797.75 832.706 1795.86C848.897 1792.23 870.291 1786.47 886.103 1781.44C902.316 1776.28 922.609 1765.69 937.472 1757.41C946.27 1752.51 957.661 1745.27 965.571 1739.04C978.915 1728.52 996.578 1714.14 1008.16 1701.7C1018.97 1690.09 1032.45 1673.71 1041.59 1660.74C1050.08 1648.71 1060.16 1631.76 1066.74 1618.59C1074.81 1602.39 1083.84 1579.94 1089.78 1562.84C1094.41 1549.52 1098.95 1531.2 1101.92 1517.41C1104.62 1504.86 1107.61 1487.96 1108.8 1475.18C1110.72 1454.76 1111.88 1427.43 1112.27 1406.93C1112.04 1394.34 1111.25 1377.56 1110.24 1365.02Z" fill="#FF6740"/>
</g>
<path d="M467.921 1166.62C392.366 1123 323.914 1118.95 274.488 1147.67L233.336 1171.59C233.494 1171.5 233.663 1171.42 233.822 1171.33C184.753 1199.57 154.295 1259.96 154.052 1345.93C209.047 1534.5 598.214 1685.7 664.543 1684C692.554 1683.28 739.958 1638.24 738.844 1635.91C739.333 1463.4 618.038 1253.3 467.921 1166.62Z" fill="#D96241"/>
<path d="M215.9 1390.25C239.909 1410.33 264.365 1429.01 289.681 1446.54C314.924 1464.12 340.831 1480.67 367.179 1496.57C393.528 1512.47 420.276 1527.77 447.303 1542.76C474.295 1557.84 501.642 1572.36 528.93 1587.71C498.636 1579.74 469.307 1568.7 440.651 1556.15C412.042 1543.49 384.173 1529.07 357.339 1512.84C330.509 1496.62 304.694 1478.57 280.618 1458.36C256.666 1438.08 234.134 1415.77 215.9 1390.25ZM260.682 1369.42C278.378 1379.21 295.226 1389.52 312.133 1399.69L362.541 1430.38C379.318 1440.63 396.065 1450.96 412.768 1461.54C429.441 1472.18 446.126 1482.92 462.341 1495.03C442.713 1490.07 423.961 1482.88 405.678 1474.7C387.427 1466.46 369.698 1457.07 352.613 1446.59C335.528 1436.12 319.069 1424.57 303.521 1411.85C288.032 1399.08 273.315 1385.24 260.682 1369.42Z" fill="#B3B3B3"/>
<path d="M666.114 1594.83C657.6 1567.63 648.547 1540.92 637.317 1515.09C634.696 1508.57 631.551 1502.25 628.702 1495.84C625.796 1489.45 622.949 1483.05 619.6 1476.87C616.347 1470.65 613.228 1464.38 610.1 1458.12C606.763 1451.96 603.268 1445.88 599.868 1439.77L594.739 1430.63L589.184 1421.72L578.199 1403.88C570.227 1392.4 562.94 1380.49 554.406 1369.44C538.226 1346.73 520.204 1325.43 501.324 1305.08L486.897 1290.05C481.961 1285.18 476.79 1280.56 471.765 1275.78C469.233 1273.42 466.763 1270.98 464.179 1268.67L456.234 1261.99L448.289 1255.3C445.638 1253.07 443.035 1250.78 440.22 1248.78L423.631 1236.33C418.037 1232.27 412.139 1228.7 406.417 1224.82C403.515 1222.96 400.691 1220.94 397.722 1219.19L388.78 1213.99C385.84 1212.17 382.777 1210.61 379.737 1208.99C376.68 1207.42 373.685 1205.67 370.57 1204.22C345.833 1192.28 319.569 1182.97 292.185 1180.03C264.93 1176.68 236.481 1180.12 210.618 1192.23C222.233 1183.97 235.544 1177.87 249.545 1173.98C263.556 1170.05 278.235 1168.52 292.869 1168.58C307.507 1168.82 322.135 1170.71 336.419 1173.97C350.67 1177.35 364.58 1182.04 378.084 1187.61C391.475 1193.37 404.791 1199.52 417.135 1207.22C423.337 1211.01 429.767 1214.51 435.766 1218.61L453.629 1231.13C476.765 1248.66 498.722 1267.81 518.356 1289.08C523.494 1294.2 528.04 1299.83 532.814 1305.25L539.907 1313.46C542.317 1316.15 544.591 1318.96 546.758 1321.85L559.989 1339C564.386 1344.73 568.336 1350.77 572.468 1356.68C580.897 1368.4 588.121 1380.9 595.712 1393.14C599.263 1399.4 602.709 1405.73 606.147 1412.05L611.259 1421.55L615.931 1431.28C629.011 1456.91 639.057 1483.96 648.028 1511.14C656.44 1538.56 662.655 1566.58 666.114 1594.83Z" fill="#69584F"/>
<path d="M1523.42 663.245L1523.25 725.263L1432.52 777.992L1432.69 715.974L1523.42 663.245Z" fill="#99452C"/>
<path d="M1384.12 702.391C1367.94 693.051 1359.86 680.787 1359.89 668.54L1359.72 730.558C1359.68 742.805 1367.77 755.069 1383.94 764.409C1397.59 772.29 1414.79 776.811 1432.52 777.992L1432.69 715.974C1414.97 714.794 1397.77 710.273 1384.12 702.391Z" fill="#C2573A"/>
<path d="M1499.8 635.16C1513.45 643.041 1521.31 652.992 1523.42 663.245L1432.69 715.974C1414.97 714.793 1397.77 710.272 1384.12 702.391C1351.98 683.833 1351.79 653.729 1383.74 635.161C1415.69 616.592 1467.66 616.602 1499.8 635.16Z" fill="#FF734F"/>
<path d="M1757.23 495.386C1756.97 494.506 1755.95 491.356 1753.82 487.756C1751.81 484.375 1750.04 482.449 1748.74 481.044C1747.35 479.538 1744.95 477.548 1743.38 476.608C1741.16 475.272 1739.47 474.338 1736.3 473.561C1733.45 472.864 1730.72 473.211 1730.42 473.253C1727.62 473.642 1726.16 474.418 1724.74 475.168C1727.99 473.28 1732.46 473.495 1737.43 476.262C1747.52 481.888 1755.82 495.936 1755.97 507.639C1756.04 513.587 1753.99 517.784 1750.63 519.735C1752.81 518.408 1755.9 516.041 1757.64 510.831C1758.15 509.329 1758.73 506.85 1758.64 503.567C1758.54 499.76 1757.66 496.806 1757.23 495.386Z" fill="#7D7D7D"/>
<path d="M1737.43 476.262C1732.46 473.495 1727.99 473.28 1724.74 475.168L1625.4 532.903C1628.65 531.015 1633.12 531.23 1638.08 533.997C1648.18 539.623 1656.48 553.672 1656.62 565.374C1656.7 571.322 1654.65 575.519 1651.29 577.47L1750.63 519.735C1753.99 517.784 1756.04 513.587 1755.97 507.639C1755.82 495.936 1747.52 481.888 1737.43 476.262Z" fill="#999999"/>
<path d="M1609.18 551.327C1609.03 539.624 1617.1 534.698 1627.2 540.325C1637.29 545.951 1645.59 559.999 1645.74 571.702C1645.88 583.405 1637.81 588.331 1627.72 582.704C1617.62 577.078 1609.32 563.03 1609.18 551.327Z" fill="#595959"/>
<path d="M1663.24 554.463C1656.48 536.254 1642.05 521.348 1628.14 518.216C1627.12 517.986 1624.01 517.285 1620.21 517.765C1616.86 518.187 1614.87 519.244 1613.26 520.093C1618.67 516.947 1626.13 517.305 1634.4 521.916C1651.23 531.292 1665.06 554.7 1665.3 574.201C1665.42 584.112 1662.01 591.106 1656.41 594.357C1659.42 592.521 1661.33 590.571 1663.25 587.402C1663.51 586.961 1664.44 585.333 1665.25 582.891C1665.85 581.065 1666.02 580.04 1666.41 577.796C1666.69 576.101 1667.91 567.017 1663.24 554.463Z" fill="#7D7D7D"/>
<path d="M1630.39 524.246C1622.12 519.635 1614.66 519.277 1609.25 522.423C1608.5 522.882 1606.74 523.957 1605.18 525.664C1603.23 527.799 1602.22 529.666 1601.79 530.589C1601.19 531.886 1600.28 533.845 1599.67 536.853C1599.06 539.871 1599.03 541.624 1598.98 544.528C1599.11 552.096 1601.05 559.763 1604.89 567.967C1605.86 570.04 1607.99 574.203 1611.29 578.795C1614.64 583.438 1617.15 585.888 1619.36 588.049C1620.97 589.618 1624.63 592.555 1626.62 593.748C1629.68 595.589 1629.68 595.589 1632.14 596.725C1633.33 597.277 1634.99 597.875 1636.27 598.208C1639.36 599.018 1642.03 599.325 1644.19 599.122C1645.62 598.987 1646.75 598.88 1647.98 598.515C1649.9 597.945 1650.32 597.79 1652.4 596.687C1658 593.436 1661.41 586.442 1661.29 576.531C1661.05 557.031 1647.22 533.622 1630.39 524.246ZM1627.72 582.703C1617.62 577.077 1609.32 563.029 1609.18 551.326C1609.03 539.623 1617.1 534.698 1627.2 540.324C1637.29 545.95 1645.59 559.998 1645.74 571.701C1645.88 583.404 1637.81 588.329 1627.72 582.703ZM1604.79 531.459C1606.22 529.768 1607.96 528.504 1609.94 527.703C1607.96 528.504 1606.22 529.768 1604.79 531.459Z" fill="#7D7D7D"/>
<path d="M1634.4 521.915C1626.13 517.304 1618.67 516.946 1613.26 520.092L1609.25 522.423C1614.66 519.277 1622.12 519.635 1630.39 524.246C1647.22 533.621 1661.05 557.03 1661.29 576.531C1661.41 586.442 1658 593.436 1652.4 596.687L1656.41 594.356C1662.01 591.105 1665.42 584.111 1665.3 574.2C1665.06 554.699 1651.23 531.29 1634.4 521.915Z" fill="#999999"/>
<path d="M1559.9 579.839L1531.92 655.779L1420.39 720.597L1289.39 737.057L1203.59 786.92C1193.8 792.612 1193.85 801.836 1203.7 807.527C1213.54 813.209 1229.47 813.209 1239.26 807.518L1314.62 763.719L1438.48 748.169C1443.21 747.576 1447.76 746.036 1451.88 743.644L1566.99 676.745C1574.12 672.599 1579.59 666.095 1582.44 658.352L1606.01 594.371C1606.01 594.371 1636.23 576.832 1636.32 576.737C1645.73 568.353 1630.16 537.724 1611.7 549.268L1559.9 579.839Z" fill="#E0E0E0"/>
<path d="M1282.48 780.396C1278.01 768.429 1271.31 760.41 1267.71 756.695C1259.5 748.213 1252.09 745.161 1247.31 744.094C1246.3 743.867 1243.21 743.177 1239.44 743.654C1236.13 744.074 1234.15 745.121 1232.55 745.963C1237.97 742.817 1245.42 743.175 1253.7 747.786C1270.52 757.162 1284.35 780.571 1284.59 800.071C1284.71 809.982 1281.3 816.976 1275.71 820.227C1278.69 818.402 1280.59 816.465 1282.49 813.317C1282.76 812.877 1283.68 811.251 1284.48 808.823C1285.09 806.973 1285.29 805.825 1285.64 803.739C1285.93 802.036 1287.14 792.901 1282.48 780.396Z" fill="#616161"/>
<path d="M1253.7 747.785C1245.42 743.174 1237.97 742.816 1232.55 745.962L1228.54 748.293C1233.96 745.147 1241.41 745.505 1249.69 750.116C1266.51 759.492 1280.34 782.901 1280.58 802.402C1280.7 812.313 1277.29 819.307 1271.69 822.558L1275.7 820.227C1281.3 816.976 1284.71 809.982 1284.59 800.071C1284.35 780.569 1270.52 757.161 1253.7 747.785Z" fill="#999999"/>
<path d="M1249.69 750.116C1241.41 745.505 1233.96 745.147 1228.54 748.293C1227.79 748.755 1226.02 749.837 1224.45 751.553C1222.49 753.698 1221.47 755.576 1221.04 756.505C1220.43 757.803 1219.52 759.763 1218.91 762.791C1218.3 765.811 1218.26 767.567 1218.21 770.477C1218.35 778.037 1220.28 785.696 1224.12 793.889C1225.09 795.958 1227.2 800.112 1230.51 804.697C1233.88 809.373 1236.37 811.797 1238.56 813.936C1240.19 815.521 1243.79 818.415 1245.81 819.63C1248.89 821.479 1248.89 821.479 1251.34 822.613C1252.54 823.166 1254.21 823.765 1255.48 824.098C1258.6 824.909 1261.28 825.215 1263.45 825.009C1264.82 824.879 1266.01 824.766 1267.27 824.39C1269.16 823.831 1269.61 823.66 1271.69 822.558C1277.29 819.306 1280.7 812.313 1280.58 802.402C1280.34 782.901 1266.51 759.492 1249.69 750.116ZM1271.48 789.878C1271.32 789.343 1271.15 788.81 1270.98 788.276C1271.15 788.809 1271.32 789.343 1271.48 789.878ZM1246.87 808.654C1236.77 803.027 1228.47 788.979 1228.33 777.277C1228.19 765.574 1236.26 760.648 1246.35 766.275C1256.45 771.901 1264.75 785.949 1264.89 797.652C1265.03 809.354 1256.97 814.28 1246.87 808.654ZM1246.23 756.247C1248.09 757.283 1249.91 758.514 1251.66 759.906C1249.91 758.513 1248.09 757.283 1246.23 756.247ZM1231.87 804.958C1233.32 806.879 1234.86 808.698 1236.48 810.386C1234.86 808.699 1233.32 806.879 1231.87 804.958ZM1238.97 812.815C1240.66 814.363 1242.42 815.763 1244.24 816.986C1242.42 815.763 1240.66 814.363 1238.97 812.815Z" fill="#616161"/>
<path d="M1129.05 842.459C1128.96 834.963 1134.13 831.808 1140.59 835.412C1147.06 839.016 1152.38 848.014 1152.47 855.51C1152.56 863.006 1147.39 866.161 1140.92 862.557C1134.46 858.953 1129.14 849.955 1129.05 842.459Z" fill="#595959"/>
<path d="M1246.35 766.275C1241.39 763.508 1236.91 763.293 1233.66 765.181L1134.32 822.916C1137.57 821.028 1142.05 821.243 1147.01 824.01C1157.11 829.636 1165.41 843.685 1165.55 855.387C1165.62 861.335 1163.58 865.532 1160.22 867.483L1259.56 809.748C1262.92 807.797 1264.96 803.6 1264.89 797.652C1264.75 785.95 1256.45 771.902 1246.35 766.275Z" fill="#999999"/>
<path d="M1147.01 824.01C1142.05 821.243 1137.57 821.028 1134.32 822.916C1126.52 827.68 1126.37 835.739 1126.32 838.773C1126.48 847.812 1131.36 857.694 1138.74 863.95C1143.92 868.332 1148.64 869.108 1150.19 869.363C1151.11 869.515 1153.25 869.665 1155.4 869.261C1157.65 868.84 1158.96 868.15 1160.22 867.483C1163.58 865.532 1165.62 861.335 1165.55 855.387C1165.41 843.684 1157.11 829.636 1147.01 824.01ZM1140.92 862.557C1134.46 858.953 1129.14 849.955 1129.05 842.459C1128.96 834.963 1134.13 831.808 1140.59 835.411C1147.06 839.015 1152.38 848.013 1152.47 855.509C1152.56 863.006 1147.39 866.161 1140.92 862.557Z" fill="#7D7D7D"/>
<path d="M1825.73 203.928C1818.41 199.678 1808.28 200.277 1797.1 206.733L1734.97 242.608C1712.76 255.434 1694.81 286.516 1694.88 312.024L1695.09 383.445C1695.12 396.127 1699.6 405.049 1706.82 409.244L1719.53 416.632C1712.31 412.437 1707.83 403.515 1707.8 390.833L1707.59 319.412C1707.52 293.904 1725.47 262.823 1747.68 249.996L1809.81 214.121C1821 207.665 1831.12 207.066 1838.44 211.316L1825.73 203.928Z" fill="#DBDBDB"/>
<path d="M1809.81 214.121C1832.03 201.295 1850.09 211.588 1850.16 237.095L1850.36 308.516C1850.44 334.044 1832.49 365.125 1810.28 377.952L1748.14 413.827C1725.93 426.653 1707.87 416.36 1707.8 390.833L1707.59 319.412C1707.52 293.904 1725.46 262.823 1747.68 249.996L1809.81 214.121Z" fill="#798F99"/>
<path d="M1535.59 682.602C1534.69 682.602 1533.77 682.465 1532.86 682.178C1528.11 680.674 1525.49 675.606 1526.99 670.858L1604.68 425.634C1608.39 413.918 1616.16 403.858 1626.56 397.31L1752.36 318.097C1756.58 315.45 1762.15 316.71 1764.8 320.924C1767.45 325.139 1766.18 330.707 1761.97 333.361L1636.17 412.572C1629.37 416.851 1624.3 423.425 1621.87 431.082L1544.18 676.305C1542.97 680.147 1539.41 682.602 1535.59 682.602Z" fill="white"/>
<path d="M1460.78 720.662C1459.82 720.662 1458.84 720.506 1457.88 720.18L1240.74 646.256C1234.53 644.141 1227.67 644.745 1221.93 647.911L1158.29 682.994C1153.93 685.404 1148.44 683.812 1146.04 679.449C1143.63 675.087 1145.22 669.602 1149.58 667.197L1213.22 632.114C1223.4 626.505 1235.55 625.433 1246.55 629.182L1463.69 703.104C1468.4 704.71 1470.93 709.833 1469.32 714.548C1468.04 718.3 1464.54 720.662 1460.78 720.662Z" fill="white"/>
<path d="M1531.29 589.478C1550.91 578.15 1568.68 577.098 1581.52 584.556L1611.09 601.742C1598.26 594.283 1580.48 595.336 1560.86 606.663C1521.88 629.174 1490.36 683.739 1490.49 728.54C1490.55 750.797 1498.41 766.458 1511.09 773.824L1481.52 756.638C1468.84 749.272 1460.98 733.611 1460.92 711.354C1460.79 666.553 1492.3 611.988 1531.29 589.478Z" fill="#666666"/>
<path d="M1560.86 606.664C1521.88 629.175 1490.36 683.74 1490.49 728.541C1490.62 773.343 1522.34 791.42 1561.32 768.909C1600.31 746.398 1631.8 691.823 1631.68 647.021C1631.55 602.219 1599.85 584.154 1560.86 606.664Z" fill="#898989"/>
<path d="M1560.73 606.757C1579.73 596.171 1596.85 595.349 1609.27 602.572C1612.42 604.493 1616.59 607.107 1619.49 609.384C1623.14 612.255 1627.76 616.406 1631.04 619.69C1633.79 622.438 1640.26 629.879 1645.08 638.372C1647.06 641.86 1649.41 646.675 1650.98 650.367C1652.27 653.415 1653.75 657.594 1654.58 660.797C1655.61 664.742 1656.85 670.055 1657.38 674.097C1657.72 676.667 1658.04 680.111 1658.2 682.698C1658.32 684.595 1658.29 687.133 1658.32 689.033C1658.22 694.827 1657.81 698.356 1657.35 701.753C1656.88 705.308 1655.84 710.268 1655.17 712.67C1653.73 717.805 1652.93 720.522 1650.6 726.119C1648.1 732.144 1644.77 737.756 1644.62 737.992C1637.84 749.374 1631.46 755.592 1627.24 759.706C1627.09 759.855 1623.42 763.416 1617.76 767.552C1614.87 769.656 1610.84 772.191 1607.73 773.951C1600.05 778.31 1591.31 781.461 1586.16 782.836C1582.25 783.882 1576.95 784.994 1572.94 785.569C1569.35 786.082 1564.52 786.488 1560.9 786.455C1556.43 786.415 1550.48 786.057 1546.05 785.504C1542.52 785.064 1537.88 784.056 1534.45 783.15C1531.38 782.34 1527.32 781.097 1524.39 779.879C1520.03 778.067 1514.38 775.28 1510.21 773.072C1497.36 765.607 1489.53 749.55 1489.81 726.796C1490.35 682.025 1522.11 628.281 1560.73 606.757Z" fill="#FFF352"/>
<path d="M1916.92 1468.91C1873.51 1476.07 1734 1544.09 1683.51 1589.39C1715.47 1409.91 1633.69 1092.53 1505.59 965.171C1530.91 875.136 1663.14 793.541 1736.29 818.863C1866.77 929.285 1965.8 1269.91 1916.92 1468.91Z" fill="#FF9378"/>
<path d="M1213.41 892.279C1211.88 892.279 1210.34 891.829 1208.98 890.892C1205.45 888.444 1204.56 883.59 1207.01 880.054C1216.37 866.534 1233.29 856.286 1251.21 845.438C1290.56 821.612 1313.34 804.717 1297.98 771.066C1296.19 767.153 1297.92 762.531 1301.83 760.745C1305.74 758.957 1310.37 760.681 1312.15 764.596C1334.38 813.29 1292.74 838.504 1259.28 858.765C1242.83 868.728 1227.28 878.139 1219.82 888.92C1218.31 891.107 1215.88 892.279 1213.41 892.279ZM1655.88 613.999C1638.48 613.999 1622.24 607.378 1609.2 588.71C1606.74 585.183 1607.6 580.328 1611.13 577.864C1614.66 575.405 1619.52 576.265 1621.98 579.792C1643.65 610.828 1677.03 598.026 1721.82 576.543C1741.22 567.239 1759.55 558.45 1775.26 557.307C1779.51 556.992 1783.28 560.222 1783.59 564.512C1783.9 568.803 1780.68 572.535 1776.38 572.848C1763.63 573.775 1746.59 581.945 1728.56 590.592C1705.76 601.522 1679.75 613.999 1655.88 613.999Z" fill="#E0E0E0"/>
<path d="M1175.39 580.631C1168.08 576.383 1157.96 576.981 1146.79 583.43L1084.64 619.315C1062.43 632.142 1044.48 663.223 1044.55 688.751L1044.76 760.152C1044.79 772.834 1049.27 781.756 1056.49 785.951L1069.2 793.339C1061.98 789.144 1057.5 780.222 1057.47 767.54L1057.27 696.139C1057.19 670.611 1075.14 639.53 1097.35 626.703L1159.5 590.818C1170.67 584.37 1180.79 583.771 1188.1 588.019L1175.39 580.631Z" fill="#DBDBDB"/>
<path d="M1159.5 590.816C1181.7 578 1199.76 588.293 1199.83 613.821L1200.04 685.222C1200.11 710.75 1182.16 741.831 1159.97 754.648L1097.82 790.533C1075.6 803.359 1057.54 793.066 1057.47 767.538L1057.27 696.137C1057.19 670.609 1075.14 639.528 1097.35 626.701L1159.5 590.816Z" fill="#798F99"/>
<path d="M1154.44 908.715L808.637 1109.69C824.016 1118.57 836.441 1140.09 836.391 1157.76C836.366 1166.54 833.267 1172.72 828.268 1175.62L1174.07 974.652C1179.07 971.748 1182.17 965.571 1182.19 956.791C1182.24 939.119 1169.82 917.594 1154.44 908.715Z" fill="#459CFF"/>
<path d="M807.783 708.559C785.715 695.818 767.812 664.816 767.884 639.446C767.944 618.167 776.628 598.744 785.814 578.181C797.169 552.719 810.048 523.876 810.163 483.5C810.504 363.28 770.875 59.3047 769.19 46.4267C766.973 29.4647 755.21 11.5617 741.841 3.84269C740.321 2.96569 738.779 2.21869 737.23 1.62169C731.229 -0.698314 725.99 -0.449305 722.003 1.86869L376.197 202.839C380.184 200.522 385.423 200.272 391.425 202.592C392.975 203.19 394.517 203.936 396.037 204.814C409.406 212.533 421.17 230.437 423.386 247.398C425.072 260.277 464.7 564.252 464.36 684.473C464.245 724.848 451.366 753.691 440.011 779.153C430.825 799.715 422.142 819.139 422.081 840.418C422.009 865.787 439.913 896.789 461.981 909.531L808.636 1109.69L1154.44 908.715L807.783 708.559Z" fill="#3E88E3"/>
<path d="M396.036 204.814C409.405 212.533 421.169 230.437 423.386 247.398C425.071 260.277 464.7 564.251 464.359 684.472C464.244 724.848 451.365 753.691 440.011 779.153C430.825 799.715 422.141 819.139 422.081 840.417C422.009 865.787 439.913 896.789 461.98 909.53L808.636 1109.69C824.015 1118.57 836.441 1140.09 836.391 1157.76C836.341 1175.44 823.834 1182.56 808.455 1173.68L461.799 973.527C409.021 943.053 366.219 868.912 366.391 808.261C366.487 774.503 377.661 749.499 388.467 725.309C398.818 702.122 408.591 680.223 408.67 652.316C408.996 537.363 368.833 229.285 368.428 226.185C365.95 207.291 376.247 196.724 391.427 202.591C392.974 203.19 394.517 203.937 396.036 204.814Z" fill="#254876"/>
<path d="M442.877 208.011C440.249 208.011 437.692 206.647 436.285 204.207C434.186 200.569 435.434 195.92 439.07 193.821L713.091 35.7219C716.727 33.6189 721.376 34.8709 723.477 38.5079C725.576 42.1459 724.328 46.7949 720.692 48.8939L446.67 206.992C445.472 207.684 444.167 208.011 442.877 208.011ZM872.878 1124.98C870.25 1124.98 867.693 1123.62 866.286 1121.18C864.187 1117.54 865.435 1112.89 869.071 1110.79L1143.09 952.697C1146.73 950.594 1151.38 951.843 1153.48 955.482C1155.58 959.12 1154.33 963.771 1150.69 965.868L876.672 1123.97C875.473 1124.66 874.167 1124.98 872.878 1124.98Z" fill="#5E5E5E"/>
<path d="M485.034 876.242C482.406 876.242 479.849 874.878 478.442 872.438C476.343 868.8 477.591 864.149 481.227 862.052L755.248 703.955C758.882 701.854 763.533 703.101 765.634 706.741C767.733 710.379 766.485 715.03 762.849 717.127L488.828 875.225C487.629 875.915 486.323 876.242 485.034 876.242Z" fill="#D6D6D6"/>
<path d="M794.745 306.635L794.86 347.137L456.21 540.214L456.095 499.712L794.745 306.635Z" fill="#C5C5C5"/>
<path d="M797.729 311.546C795.415 310.21 793.069 308.932 790.715 307.669C790.697 314.177 790.678 320.685 790.66 327.193C790.647 331.864 790.634 336.535 790.62 341.205C790.614 343.393 789.729 347.726 790.596 349.769C791.295 351.419 794.801 352.498 796.455 353.437C800.501 355.735 804.472 358.166 808.354 360.73C815.2 365.25 821.775 370.194 827.926 375.626C838.811 385.236 848.455 396.443 855.343 409.277C861.988 421.658 865.88 435.493 865.84 449.589C865.879 435.715 865.936 421.841 865.958 407.966C865.994 384.298 855.791 362.665 840.237 345.174C828.17 331.606 813.406 320.598 797.729 311.546Z" fill="#7B7B7B"/>
<path d="M873.599 411.271C871.947 441.435 853.536 467.106 831.008 485.896C807.223 505.735 778.293 519.15 748.9 528.346C687.886 547.434 621.42 549.528 558.803 537.674C523.92 531.07 489.436 519.121 459.195 500.341C459.168 509.954 459.14 519.567 459.113 529.181C459.105 531.997 459.097 534.813 459.089 537.63C459.085 538.917 458.634 541.137 459.076 542.362C459.907 544.668 465.702 546.908 467.912 548.151C472.937 550.978 478.079 553.632 483.293 556.094C525.285 575.919 571.874 585.129 618.078 587.088C665.777 589.11 714.506 583.23 759.626 567.289C800.417 552.878 843.684 528.452 863.97 488.45C871.076 474.437 873.634 459.658 873.678 444.106C873.71 432.662 873.743 421.217 873.775 409.773C873.778 408.869 873.78 407.966 873.783 407.062C873.779 408.465 873.676 409.869 873.599 411.271Z" fill="#999999"/>
<path d="M803.241 308.342C835.447 326.938 866.823 355.76 872.81 394.284C878.382 430.142 858.601 462.692 832.031 485.097C800.498 511.687 760.24 527.189 720.34 535.942C678.193 545.188 634.348 547.19 591.47 542.596C550.682 538.226 509.81 527.835 473.42 508.544C468.58 505.978 463.849 503.229 459.195 500.339C460.215 499.746 461.234 499.154 462.254 498.561C464.004 497.544 464.102 497.079 465.819 497.811C470.753 499.916 475.409 503.502 480.207 506.002C488.889 510.526 497.847 514.513 506.982 518.027C526.318 525.465 546.439 530.809 566.825 534.441C609.338 542.015 653.321 542.417 695.981 535.747C736.348 529.436 776.945 516.654 810.981 493.543C840.58 473.445 866.893 442.511 865.934 404.803C864.969 366.823 836.958 336.537 806.675 317.004C801.49 313.66 796.149 310.586 790.715 307.668C792.137 306.841 793.606 305.689 795.135 305.099C796.186 304.694 795.761 304.604 796.822 304.78C798.706 305.094 801.611 307.401 803.241 308.342Z" fill="#DCDCDC"/>
<path d="M757.347 643.345L775.723 690.263L437.072 883.34L418.697 836.422L757.347 643.345Z" fill="#C5C5C5"/>
<path d="M824.766 656.194C821.86 647.945 812.316 644.292 804.568 642.347C789.262 638.505 772.906 638.974 757.289 639.969C761.845 652.903 766.401 665.837 770.957 678.772C771.96 681.618 772.962 684.464 773.964 687.31C774.129 687.78 774.313 688.988 774.678 689.336C775.786 690.393 779.17 689.486 780.842 689.408C794.387 688.776 808.463 688.78 821.714 692.031C829.575 693.959 839.349 697.596 842.301 705.975C836.457 689.381 830.611 672.787 824.766 656.194Z" fill="#7B7B7B"/>
<path d="M850.754 709.684C851.057 705.58 849.55 702.027 848.222 698.258C846.2 692.518 844.178 686.778 842.156 681.038C838.921 671.854 835.686 662.67 832.451 653.486C837.006 666.414 823.845 680.326 815.628 688.47C804.927 699.075 792.556 708.029 779.98 716.265C754.036 733.256 726.319 747.53 698.121 760.374C641.196 786.303 581.429 807.132 520.529 821.489C487.266 829.331 453.19 835.796 418.933 836.543C421.388 843.511 423.842 850.48 426.297 857.448C428.195 862.837 430.093 868.225 431.991 873.614C433.254 877.2 434.167 881.345 435.907 884.731C436.101 885.108 436.14 886.051 436.464 886.311C437.297 886.979 441.713 886.176 442.841 886.127C445.636 886.007 448.433 885.854 451.223 885.644C460.823 884.92 470.389 883.867 479.92 882.512C499.481 879.731 518.877 875.818 538.1 871.27C575.84 862.341 613.031 850.803 649.397 837.35C687.539 823.24 725.073 807.131 760.855 787.753C779.472 777.671 797.767 766.784 814.685 754.014C823.435 747.41 831.92 740.223 839.121 731.932C844.492 725.746 850.128 718.15 850.754 709.684Z" fill="#999999"/>
<path d="M769.593 636.328C785.334 635.643 802.535 635.468 817.549 640.989C825.557 643.933 833.493 649.58 833.293 658.98C833.058 669.99 824.13 679.936 816.863 687.285C802.638 701.67 785.474 713.18 768.283 723.679C733.669 744.818 696.627 762.012 659.032 777.111C620.042 792.77 580.065 806.127 539.416 816.776C504.463 825.933 468.663 833.516 432.542 835.943C428.01 836.248 423.475 836.442 418.934 836.541C420.687 835.523 422.651 833.856 424.577 833.263C426.781 832.584 430.17 833.119 432.519 833.004C434.404 832.912 436.288 832.8 438.171 832.672C446.219 832.125 454.245 831.276 462.242 830.218C480.493 827.805 498.6 824.328 516.544 820.229C556.971 810.994 596.717 798.655 635.539 784.113C673.361 769.946 710.576 753.659 745.85 733.929C764.757 723.354 783.448 711.826 800.012 697.788C809.589 689.672 820.729 679.621 824.585 667.205C832.826 640.67 789.446 639.304 773.86 639.356C768.33 639.374 762.808 639.617 757.289 639.968C758.699 639.149 760.083 638.233 761.538 637.5C764.051 636.233 766.756 636.451 769.593 636.328Z" fill="#999999"/>
</svg>
